<svg xmlns="http://www.w3.org/2000/svg" xmlns:xlink="http://www.w3.org/1999/xlink" xmlns:lucid="lucid" width="1920" height="2620"><g transform="translate(0 0)" lucid:page-tab-id="0_0"><path d="M0 0h1920v2620H0z" fill="#fff"/><path d="M406.3 68a8 8 0 0 1 8-8h836.74a8 8 0 0 1 8 8v25.16a8 8 0 0 1-8 8H414.3a8 8 0 0 1-8-8z" stroke="#000" stroke-opacity="0" stroke-width="2" fill="#fff" fill-opacity="0"/><use xlink:href="#a" transform="matrix(1,0,0,1,410.2931055706863,63.99999999999999) translate(276.7803703703704 25.782777777777778)"/><use xlink:href="#b" transform="matrix(1,0,0,1,410.2931055706863,63.99999999999999) translate(348.0174074074074 25.782777777777778)"/><use xlink:href="#c" transform="matrix(1,0,0,1,410.2931055706863,63.99999999999999) translate(398.9322222222222 25.782777777777778)"/><use xlink:href="#d" transform="matrix(1,0,0,1,410.2931055706863,63.99999999999999) translate(468.78530864197535 25.782777777777778)"/><path d="M545.88 99.8h581.26M545.9 99.8h-1.02M1127.12 99.8h1.02" stroke="#a9afb8" stroke-width="2" fill="none"/><path d="M406.3 109.16a8 8 0 0 1 8-8H1252a8 8 0 0 1 8 8V112a8 8 0 0 1-8 8H414.3a8 8 0 0 1-8-8z" stroke="#000" stroke-opacity="0" stroke-width="2" fill="#fff" fill-opacity="0"/><use xlink:href="#e" transform="matrix(1,0,0,1,410.29310557068675,105.15522395689881) translate(332.23777777777775 14.917037037037037)"/><use xlink:href="#f" transform="matrix(1,0,0,1,410.29310557068675,105.15522395689881) translate(413.73304526748973 14.917037037037037)"/><use xlink:href="#g" transform="matrix(1,0,0,1,410.29310557068675,105.15522395689881) translate(426.18253086419753 14.917037037037037)"/><use xlink:href="#h" transform="matrix(1,0,0,1,410.29310557068675,105.15522395689881) translate(460.89662551440324 14.917037037037037)"/><use xlink:href="#i" transform="matrix(1,0,0,1,410.29310557068675,105.15522395689881) translate(486.3904526748971 14.917037037037037)"/><path d="M565.8 188a8 8 0 0 1 8-8h160.14a8 8 0 0 1 8 8v84a8 8 0 0 1-8 8H573.8a8 8 0 0 1-8-8z" stroke="#333" fill="#fff"/><use xlink:href="#j" transform="matrix(1,0,0,1,565.8136359757658,180) translate(37.07999999999999 55.025)"/><use xlink:href="#k" transform="matrix(1,0,0,1,565.8136359757658,180) translate(126.93 55.025)"/><path d="M565.8 2528a8 8 0 0 1 8-8h160.14a8 8 0 0 1 8 8v84a8 8 0 0 1-8 8H573.8a8 8 0 0 1-8-8z" stroke="#333" fill="#fff"/><use xlink:href="#j" transform="matrix(1,0,0,1,565.8136359757658,2520) translate(37.07999999999999 55.025)"/><use xlink:href="#k" transform="matrix(1,0,0,1,565.8136359757658,2520) translate(126.93 55.025)"/><path d="M653.88 280.95v5m0 5V301m0 5V316m0 5v10.02m0 5v10.02m0 5v10.02m0 5v10.02m0 5v10.02m0 5v10.02m0 5v10.03m0 5v10.02m0 5v10.02m0 5v10m0 5v10.03m0 5v10.02m0 5v10.02m0 5v10.02m0 5v10m0 5.02v10m0 5.02v10m0 5.02v10m0 5.02v10m0 5.02v10.02m0 5v10.02m0 5v10.02m0 5v10.02m0 5v10.02m0 5v10.02m0 5v10.02m0 5v10.02m0 5v10.02m0 5v10.02m0 5v10.02m0 5v10.02m0 5v10.02m0 5v10.03m0 5v10m0 5v10.03m0 5v10.02m0 5v10.02m0 5v10.02m0 5v10m0 5.02v10m0 5.02v10m0 5.02v10m0 5.02v10m0 5.02v10m0 5.02v10.02m0 5v10.02m0 5v10.02m0 5V1037m0 5v10.02m0 5v10.02m0 5v10.02m0 5v10.02m0 5v10.02m0 5v10.02m0 5v10.02m0 5v10.02m0 5v10.02m0 5v10.03m0 5v10.03m0 5v10.02m0 5v10.02m0 5v10.02m0 5v10m0 5.02v10m0 5.02v10m0 5.02v10m0 5.02v10m0 5.02v10m0 5.02v10m0 5.02v10m0 5.02v10.02m0 5v10.02m0 5v10.02m0 5v10.02m0 5v10.02m0 5v10.02m0 5v10.02m0 5v10.02m0 5v10.02m0 5v10.02m0 5v10.02m0 5v10.02m0 5v10.03m0 5v10.02m0 5v10.02m0 5v10.02m0 5v10m0 5.02v10m0 5.02v10m0 5.02v10m0 5.02v10m0 5.02v10m0 5.02v10m0 5.02v10m0 5.02v10m0 5.02V1758m0 5v10.02m0 5v10.02m0 5v10.02m0 5v10.02m0 5v10.02m0 5v10.02m0 5v10.02m0 5v10.02m0 5v10.02m0 5v10.02m0 5v10.02m0 5v10.02m0 5v10.03m0 5v10.02m0 5v10m0 5v10.03m0 5v10.02m0 5v10.02m0 5v10.02m0 5v10m0 5.02v10m0 5.02v10m0 5.02v10m0 5.02v10m0 5.02v10.02m0 5v10.02m0 5v10.02m0 5v10.02m0 5v10.02m0 5v10.02m0 5v10.02m0 5v10.02m0 5v10.02m0 5v10.02m0 5v10.02m0 5v10.02m0 5v10.02m0 5v10.03m0 5v10m0 5v10.03m0 5v10.02m0 5v10.02m0 5v10.02m0 5v10m0 5.02v10m0 5.02v10m0 5.02v10m0 5.02v10m0 5.02v10m0 5.02v10.02m0 5v5" stroke="#333" fill="none"/><path d="M654.38 280.96h-1v-.5h1zM654.38 2519.55h-1v-.5h1z" stroke="#333" stroke-width=".05" fill="#333"/><path d="M918.06 188a8 8 0 0 1 8-8h160.13a8 8 0 0 1 8 8v84a8 8 0 0 1-8 8H926.05a8 8 0 0 1-8-8z" stroke="#333" fill="#fff"/><use xlink:href="#j" transform="matrix(1,0,0,1,918.0621213414113,180) translate(37.07999999999999 55.025)"/><use xlink:href="#l" transform="matrix(1,0,0,1,918.0621213414113,180) translate(126.93 55.025)"/><path d="M918.06 2528a8 8 0 0 1 8-8h160.13a8 8 0 0 1 8 8v84a8 8 0 0 1-8 8H926.05a8 8 0 0 1-8-8z" stroke="#333" fill="#fff"/><use xlink:href="#j" transform="matrix(1,0,0,1,918.0621213414113,2520) translate(37.07999999999999 55.025)"/><use xlink:href="#l" transform="matrix(1,0,0,1,918.0621213414113,2520) translate(126.93 55.025)"/><path d="M1006.12 280.95v5m0 5V301m0 5V316m0 5v10.02m0 5v10.02m0 5v10.02m0 5v10.02m0 5v10.02m0 5v10.02m0 5v10.03m0 5v10.02m0 5v10.02m0 5v10m0 5v10.03m0 5v10.02m0 5v10.02m0 5v10.02m0 5v10m0 5.02v10m0 5.02v10m0 5.02v10m0 5.02v10m0 5.02v10.02m0 5v10.02m0 5v10.02m0 5v10.02m0 5v10.02m0 5v10.02m0 5v10.02m0 5v10.02m0 5v10.02m0 5v10.02m0 5v10.02m0 5v10.02m0 5v10.02m0 5v10.03m0 5v10m0 5v10.03m0 5v10.02m0 5v10.02m0 5v10.02m0 5v10m0 5.02v10m0 5.02v10m0 5.02v10m0 5.02v10m0 5.02v10m0 5.02v10.02m0 5v10.02m0 5v10.02m0 5V1037m0 5v10.02m0 5v10.02m0 5v10.02m0 5v10.02m0 5v10.02m0 5v10.02m0 5v10.02m0 5v10.02m0 5v10.02m0 5v10.03m0 5v10.03m0 5v10.02m0 5v10.02m0 5v10.02m0 5v10m0 5.02v10m0 5.02v10m0 5.02v10m0 5.02v10m0 5.02v10m0 5.02v10m0 5.02v10m0 5.02v10.02m0 5v10.02m0 5v10.02m0 5v10.02m0 5v10.02m0 5v10.02m0 5v10.02m0 5v10.02m0 5v10.02m0 5v10.02m0 5v10.02m0 5v10.02m0 5v10.03m0 5v10.02m0 5v10.02m0 5v10.02m0 5v10m0 5.02v10m0 5.02v10m0 5.02v10m0 5.02v10m0 5.02v10m0 5.02v10m0 5.02v10m0 5.02v10m0 5.02V1758m0 5v10.02m0 5v10.02m0 5v10.02m0 5v10.02m0 5v10.02m0 5v10.02m0 5v10.02m0 5v10.02m0 5v10.02m0 5v10.02m0 5v10.02m0 5v10.02m0 5v10.03m0 5v10.02m0 5v10m0 5v10.03m0 5v10.02m0 5v10.02m0 5v10.02m0 5v10m0 5.02v10m0 5.02v10m0 5.02v10m0 5.02v10m0 5.02v10.02m0 5v10.02m0 5v10.02m0 5v10.02m0 5v10.02m0 5v10.02m0 5v10.02m0 5v10.02m0 5v10.02m0 5v10.02m0 5v10.02m0 5v10.02m0 5v10.02m0 5v10.03m0 5v10m0 5v10.03m0 5v10.02m0 5v10.02m0 5v10.02m0 5v10m0 5.02v10m0 5.02v10m0 5.02v10m0 5.02v10m0 5.02v10m0 5.02v10.02m0 5v5" stroke="#333" fill="none"/><path d="M1006.62 280.96h-1v-.5h1zM1006.62 2519.55h-1v-.5h1z" stroke="#333" stroke-width=".05" fill="#333"/><path d="M624.52 328.44a8 8 0 0 1 8-8h24a8 8 0 0 1 8 8v2183.1a8 8 0 0 1-8 8h-24a8 8 0 0 1-8-8zM976.77 328.44a8 8 0 0 1 8-8h24a8 8 0 0 1 8 8v2183.1a8 8 0 0 1-8 8h-24a8 8 0 0 1-8-8z" stroke="#333" fill="#fff"/><path d="M400 348.43a8 8 0 0 1 8-8h84a8 8 0 0 1 8 8v4.93a17.07 17.07 0 0 1-5 12.07 17.07 17.07 0 0 1-12.07 5H408a8 8 0 0 1-8-8z" fill="#fff"/><path d="M500 340.43v20l-10 10h-90" stroke="#333" fill="none"/><path d="M400 348.43a8 8 0 0 1 8-8h844a8 8 0 0 1 8 8V1651.9a8 8 0 0 1-8 8H408a8 8 0 0 1-8-8z" stroke="#333" fill="none"/><use xlink:href="#m" transform="matrix(1,0,0,1,408.00000000000006,340.4271206400325) translate(26.5 18.6)"/><use xlink:href="#n" transform="matrix(1,0,0,1,412.00000000000006,378.4271206400325) translate(11.575000000000003 18.6)"/><use xlink:href="#o" transform="matrix(1,0,0,1,412.00000000000006,378.4271206400325) translate(63.425000000000004 18.6)"/><path d="M571.72 400.38h152.3l12 12v48h-164.3z" stroke="#333" fill="#fff"/><path d="M724.03 400.85v11.53h11.52" stroke="#333" fill="#fff"/><use xlink:href="#p" transform="matrix(1,0,0,1,576.7211366157521,405.37876736002875) translate(41.525 30.025)"/><use xlink:href="#q" transform="matrix(1,0,0,1,576.7211366157521,405.37876736002875) translate(93.475 30.025)"/><path d="M543.83 480.35h208.1l12 12v48h-220.1z" stroke="#333" fill="#fff"/><path d="M751.92 480.82v11.53h11.52" stroke="#333" fill="#fff"/><use xlink:href="#r" transform="matrix(1,0,0,1,548.8347981909719,485.34653184002633) translate(50.525 30.025)"/><use xlink:href="#s" transform="matrix(1,0,0,1,548.8347981909719,485.34653184002633) translate(82.525 30.025)"/><use xlink:href="#t" transform="matrix(1,0,0,1,548.8347981909719,485.34653184002633) translate(130.475 30.025)"/><use xlink:href="#u" transform="matrix(1,0,0,1,548.8347981909719,485.34653184002633) translate(150.475 30.025)"/><path d="M923.97 560.3h152.3l12 12v48h-164.3z" stroke="#333" fill="#fff"/><path d="M1076.28 560.8v11.5h11.52" stroke="#333" fill="#fff"/><use xlink:href="#p" transform="matrix(1,0,0,1,928.9696219813977,565.3142963200237) translate(41.525 30.025)"/><use xlink:href="#q" transform="matrix(1,0,0,1,928.9696219813977,565.3142963200237) translate(93.475 30.025)"/><path d="M976.27 680.3H680.9" stroke="#333" fill="none"/><path d="M976.3 680.8h-.04v-1h.03z" stroke="#333" stroke-width=".05" fill="#333"/><path d="M666.14 680.3l14.27-4.65v9.28z" stroke="#333" fill="#333"/><use xlink:href="#v" transform="matrix(1,0,0,1,750.2709595528629,654.6901196800221) translate(0.0049999999999954525 14.4)"/><path d="M476.43 700.26h342.9l12 12v48h-354.9z" stroke="#333" fill="#fff"/><path d="M819.32 700.73v11.53h11.52" stroke="#333" fill="#fff"/><use xlink:href="#w" transform="matrix(1,0,0,1,481.4305828142333,705.2578841600196) translate(71.6 30.025)"/><use xlink:href="#x" transform="matrix(1,0,0,1,481.4305828142333,705.2578841600196) translate(139.55 30.025)"/><use xlink:href="#y" transform="matrix(1,0,0,1,481.4305828142333,705.2578841600196) translate(200.45 30.025)"/><path d="M665.02 820.23H960.4" stroke="#333" fill="none"/><path d="M665.03 820.73h-.08v-1h.08z" stroke="#333" stroke-width=".05" fill="#333"/><path d="M975.15 820.23l-14.26 4.64v-9.27z" stroke="#333" fill="#333"/><use xlink:href="#z" transform="matrix(1,0,0,1,728.2459595528629,794.6337075200179) translate(0.0049999999999954525 14.4)"/><path d="M781.6 840.2h437.05l12 12v48H781.6z" stroke="#333" fill="#fff"/><path d="M1218.65 840.68v11.52h11.52" stroke="#333" fill="#fff"/><use xlink:href="#A" transform="matrix(1,0,0,1,786.6025258127827,845.2014720000153) translate(87.025 30.025)"/><use xlink:href="#B" transform="matrix(1,0,0,1,786.6025258127827,845.2014720000153) translate(147.025 30.025)"/><use xlink:href="#t" transform="matrix(1,0,0,1,786.6025258127827,845.2014720000153) translate(250.975 30.025)"/><use xlink:href="#C" transform="matrix(1,0,0,1,786.6025258127827,845.2014720000153) translate(270.975 30.025)"/><use xlink:href="#D" transform="matrix(1,0,0,1,786.6025258127827,845.2014720000153) translate(296.975 30.025)"/><use xlink:href="#E" transform="matrix(1,0,0,1,786.6025258127827,845.2014720000153) translate(316.975 30.025)"/><use xlink:href="#F" transform="matrix(1,0,0,1,786.6025258127827,845.2014720000153) translate(336.975 30.025)"/><path d="M976.27 960.18H680.9" stroke="#333" fill="none"/><path d="M976.3 960.68h-.04v-1h.04z" stroke="#333" stroke-width=".05" fill="#333"/><path d="M666.14 960.18l14.27-4.64v9.27z" stroke="#333" fill="#333"/><use xlink:href="#G" transform="matrix(1,0,0,1,728.2459595528629,934.5772953600135) translate(0.0049999999999954525 14.4)"/><path d="M439.04 980.15H856.7l12 12v48H439.05z" stroke="#333" fill="#fff"/><path d="M856.7 980.62v11.53h11.53" stroke="#333" fill="#fff"/><use xlink:href="#w" transform="matrix(1,0,0,1,444.0408737946924,985.145059840011) translate(83.625 30.025)"/><use xlink:href="#H" transform="matrix(1,0,0,1,444.0408737946924,985.145059840011) translate(151.575 30.025)"/><path d="M429.35 1060.1H866.4l12 12v48H429.35z" stroke="#333" fill="#fff"/><path d="M866.4 1060.6v11.5h11.52" stroke="#333" fill="#fff"/><use xlink:href="#A" transform="matrix(1,0,0,1,434.3540404471372,1065.1128243200085) translate(87.025 30.025)"/><use xlink:href="#B" transform="matrix(1,0,0,1,434.3540404471372,1065.1128243200085) translate(147.025 30.025)"/><use xlink:href="#t" transform="matrix(1,0,0,1,434.3540404471372,1065.1128243200085) translate(250.975 30.025)"/><use xlink:href="#C" transform="matrix(1,0,0,1,434.3540404471372,1065.1128243200085) translate(270.975 30.025)"/><use xlink:href="#D" transform="matrix(1,0,0,1,434.3540404471372,1065.1128243200085) translate(296.975 30.025)"/><use xlink:href="#E" transform="matrix(1,0,0,1,434.3540404471372,1065.1128243200085) translate(316.975 30.025)"/><use xlink:href="#F" transform="matrix(1,0,0,1,434.3540404471372,1065.1128243200085) translate(336.975 30.025)"/><path d="M436.73 1140.08h422.3l12 12v48h-434.3z" stroke="#333" fill="#fff"/><path d="M859.02 1140.56v11.52h11.53" stroke="#333" fill="#fff"/><use xlink:href="#I" transform="matrix(1,0,0,1,441.72924310948036,1145.080588800006) translate(84.55000000000001 30.025)"/><use xlink:href="#J" transform="matrix(1,0,0,1,441.72924310948036,1145.080588800006) translate(199.5 30.025)"/><use xlink:href="#K" transform="matrix(1,0,0,1,441.72924310948036,1145.080588800006) translate(230.5 30.025)"/><path d="M665.02 1260.06H960.4" stroke="#333" fill="none"/><path d="M665.03 1260.56h-.06v-1h.06z" stroke="#333" stroke-width=".05" fill="#333"/><path d="M975.15 1260.06l-14.26 4.63v-9.28z" stroke="#333" fill="#333"/><use xlink:href="#L" transform="matrix(1,0,0,1,739.2209595528628,1234.4564121600044) translate(0.0049999999999954525 14.4)"/><path d="M834.48 1280.02h331.3l12 12v48h-343.3z" stroke="#333" fill="#fff"/><path d="M1165.77 1280.5v11.52h11.53" stroke="#333" fill="#fff"/><use xlink:href="#M" transform="matrix(1,0,0,1,839.4764911681884,1285.0241766400018) translate(70.05 30.025)"/><use xlink:href="#N" transform="matrix(1,0,0,1,839.4764911681884,1285.0241766400018) translate(118 30.025)"/><use xlink:href="#y" transform="matrix(1,0,0,1,839.4764911681884,1285.0241766400018) translate(191 30.025)"/><path d="M875.54 1360h249.17l12 12v48H875.55z" stroke="#333" fill="#fff"/><path d="M1124.7 1360.47V1372h11.54" stroke="#333" fill="#fff"/><use xlink:href="#A" transform="matrix(1,0,0,1,880.5354552436214,1364.9919411199994) translate(57.025000000000006 30.025)"/><use xlink:href="#s" transform="matrix(1,0,0,1,880.5354552436214,1364.9919411199994) translate(117.025 30.025)"/><use xlink:href="#t" transform="matrix(1,0,0,1,880.5354552436214,1364.9919411199994) translate(164.97500000000002 30.025)"/><use xlink:href="#u" transform="matrix(1,0,0,1,880.5354552436214,1364.9919411199994) translate(184.97500000000002 30.025)"/><path d="M781.6 1439.96h437.05l12 12v48H781.6z" stroke="#333" fill="#fff"/><path d="M1218.65 1440.44v11.52h11.52" stroke="#333" fill="#fff"/><use xlink:href="#A" transform="matrix(1,0,0,1,786.6025258127827,1444.9597055999966) translate(87.025 30.025)"/><use xlink:href="#B" transform="matrix(1,0,0,1,786.6025258127827,1444.9597055999966) translate(147.025 30.025)"/><use xlink:href="#t" transform="matrix(1,0,0,1,786.6025258127827,1444.9597055999966) translate(250.975 30.025)"/><use xlink:href="#C" transform="matrix(1,0,0,1,786.6025258127827,1444.9597055999966) translate(270.975 30.025)"/><use xlink:href="#D" transform="matrix(1,0,0,1,786.6025258127827,1444.9597055999966) translate(296.975 30.025)"/><use xlink:href="#E" transform="matrix(1,0,0,1,786.6025258127827,1444.9597055999966) translate(316.975 30.025)"/><use xlink:href="#O" transform="matrix(1,0,0,1,786.6025258127827,1444.9597055999966) translate(336.975 30.025)"/><path d="M976.27 1559.94H680.9" stroke="#333" fill="none"/><path d="M976.33 1560.44h-.07v-1h.07z" stroke="#333" stroke-width=".05" fill="#333"/><path d="M666.14 1559.94l14.27-4.64v9.27z" stroke="#333" fill="#333"/><g><use xlink:href="#G" transform="matrix(1,0,0,1,728.2459595528629,1534.3355289599951) translate(0.0049999999999954525 14.4)"/></g><path d="M429.35 1579.9H866.4l12 12v48H429.35z" stroke="#333" fill="#fff"/><path d="M866.4 1580.38v11.52h11.52" stroke="#333" fill="#fff"/><g><use xlink:href="#A" transform="matrix(1,0,0,1,434.3540404471372,1584.9032934399922) translate(87.025 30.025)"/><use xlink:href="#B" transform="matrix(1,0,0,1,434.3540404471372,1584.9032934399922) translate(147.025 30.025)"/><use xlink:href="#t" transform="matrix(1,0,0,1,434.3540404471372,1584.9032934399922) translate(250.975 30.025)"/><use xlink:href="#C" transform="matrix(1,0,0,1,434.3540404471372,1584.9032934399922) translate(270.975 30.025)"/><use xlink:href="#D" transform="matrix(1,0,0,1,434.3540404471372,1584.9032934399922) translate(296.975 30.025)"/><use xlink:href="#E" transform="matrix(1,0,0,1,434.3540404471372,1584.9032934399922) translate(316.975 30.025)"/><use xlink:href="#O" transform="matrix(1,0,0,1,434.3540404471372,1584.9032934399922) translate(336.975 30.025)"/></g><path d="M400 1687.9a8 8 0 0 1 8-8h84a8 8 0 0 1 8 8v4.92a17.07 17.07 0 0 1-5 12.07 17.07 17.07 0 0 1-12.07 5H408a8 8 0 0 1-8-8z" fill="#fff"/><path d="M500 1679.9v20l-10 10h-90" stroke="#333" fill="none"/><path d="M400 1687.9a8 8 0 0 1 8-8h844a8 8 0 0 1 8 8v783.66a8 8 0 0 1-8 8H408a8 8 0 0 1-8-8z" stroke="#333" fill="none"/><g><use xlink:href="#m" transform="matrix(1,0,0,1,408.00000000000006,1679.8871756799913) translate(26.5 18.6)"/></g><g><use xlink:href="#P" transform="matrix(1,0,0,1,412.00000000000006,1717.8871756799913) translate(10.099999999999994 18.6)"/><use xlink:href="#Q" transform="matrix(1,0,0,1,412.00000000000006,1717.8871756799913) translate(86.95 18.6)"/></g><path d="M896.08 1739.84h208.1l12 12v48h-220.1z" stroke="#333" fill="#fff"/><path d="M1104.17 1740.32v11.52h11.52" stroke="#333" fill="#fff"/><g><use xlink:href="#r" transform="matrix(1,0,0,1,901.0832835566174,1744.8388223999875) translate(50.525 30.025)"/><use xlink:href="#s" transform="matrix(1,0,0,1,901.0832835566174,1744.8388223999875) translate(82.525 30.025)"/><use xlink:href="#t" transform="matrix(1,0,0,1,901.0832835566174,1744.8388223999875) translate(130.475 30.025)"/><use xlink:href="#R" transform="matrix(1,0,0,1,901.0832835566174,1744.8388223999875) translate(150.475 30.025)"/></g><path d="M781.6 1819.8h437.05l12 12v48H781.6z" stroke="#333" fill="#fff"/><path d="M1218.65 1820.28v11.53h11.52" stroke="#333" fill="#fff"/><g><use xlink:href="#A" transform="matrix(1,0,0,1,786.6025258127827,1824.8065868799854) translate(87.025 30.025)"/><use xlink:href="#B" transform="matrix(1,0,0,1,786.6025258127827,1824.8065868799854) translate(147.025 30.025)"/><use xlink:href="#t" transform="matrix(1,0,0,1,786.6025258127827,1824.8065868799854) translate(250.975 30.025)"/><use xlink:href="#C" transform="matrix(1,0,0,1,786.6025258127827,1824.8065868799854) translate(270.975 30.025)"/><use xlink:href="#D" transform="matrix(1,0,0,1,786.6025258127827,1824.8065868799854) translate(296.975 30.025)"/><use xlink:href="#E" transform="matrix(1,0,0,1,786.6025258127827,1824.8065868799854) translate(316.975 30.025)"/><use xlink:href="#S" transform="matrix(1,0,0,1,786.6025258127827,1824.8065868799854) translate(336.975 30.025)"/></g><path d="M976.27 1939.78H680.9" stroke="#333" fill="none"/><path d="M976.34 1940.28h-.08v-1h.08z" stroke="#333" stroke-width=".05" fill="#333"/><path d="M666.14 1939.78l14.27-4.63v9.27z" stroke="#333" fill="#333"/><g><use xlink:href="#G" transform="matrix(1,0,0,1,728.2459595528629,1914.1824102399833) translate(0.0049999999999954525 14.4)"/></g><path d="M429.35 1959.75H866.4l12 12v48H429.35z" stroke="#333" fill="#fff"/><path d="M866.4 1960.23v11.52h11.52" stroke="#333" fill="#fff"/><g><use xlink:href="#A" transform="matrix(1,0,0,1,434.3540404471372,1964.7501747199808) translate(87.025 30.025)"/><use xlink:href="#B" transform="matrix(1,0,0,1,434.3540404471372,1964.7501747199808) translate(147.025 30.025)"/><use xlink:href="#t" transform="matrix(1,0,0,1,434.3540404471372,1964.7501747199808) translate(250.975 30.025)"/><use xlink:href="#C" transform="matrix(1,0,0,1,434.3540404471372,1964.7501747199808) translate(270.975 30.025)"/><use xlink:href="#D" transform="matrix(1,0,0,1,434.3540404471372,1964.7501747199808) translate(296.975 30.025)"/><use xlink:href="#E" transform="matrix(1,0,0,1,434.3540404471372,1964.7501747199808) translate(316.975 30.025)"/><use xlink:href="#S" transform="matrix(1,0,0,1,434.3540404471372,1964.7501747199808) translate(336.975 30.025)"/></g><path d="M976.27 2079.73H680.9" stroke="#333" fill="none"/><path d="M976.35 2080.23h-.1v-1h.1z" stroke="#333" stroke-width=".05" fill="#333"/><path d="M666.14 2079.73l14.27-4.64v9.26z" stroke="#333" fill="#333"/><g><use xlink:href="#T" transform="matrix(1,0,0,1,739.2209595528628,2054.125998079979) translate(0.0049999999999954525 14.4)"/></g><path d="M482.23 2099.7h331.3l12 12v48h-343.3z" stroke="#333" fill="#fff"/><path d="M813.52 2100.17v11.52h11.53" stroke="#333" fill="#fff"/><g><use xlink:href="#M" transform="matrix(1,0,0,1,487.2280058025429,2104.6937625599767) translate(70.05 30.025)"/><use xlink:href="#N" transform="matrix(1,0,0,1,487.2280058025429,2104.6937625599767) translate(118 30.025)"/><use xlink:href="#y" transform="matrix(1,0,0,1,487.2280058025429,2104.6937625599767) translate(191 30.025)"/></g><path d="M523.3 2179.66h249.16l12 12v48H523.3z" stroke="#333" fill="#fff"/><path d="M772.46 2180.14v11.52H784" stroke="#333" fill="#fff"/><g><use xlink:href="#A" transform="matrix(1,0,0,1,528.2869698779759,2184.6615270399743) translate(57.025000000000006 30.025)"/><use xlink:href="#s" transform="matrix(1,0,0,1,528.2869698779759,2184.6615270399743) translate(117.025 30.025)"/><use xlink:href="#t" transform="matrix(1,0,0,1,528.2869698779759,2184.6615270399743) translate(164.97500000000002 30.025)"/><use xlink:href="#R" transform="matrix(1,0,0,1,528.2869698779759,2184.6615270399743) translate(184.97500000000002 30.025)"/></g><path d="M429.35 2259.63H866.4l12 12v48H429.35z" stroke="#333" fill="#fff"/><path d="M866.4 2260.1v11.53h11.52" stroke="#333" fill="#fff"/><g><use xlink:href="#A" transform="matrix(1,0,0,1,434.3540404471372,2264.6292915199715) translate(87.025 30.025)"/><use xlink:href="#B" transform="matrix(1,0,0,1,434.3540404471372,2264.6292915199715) translate(147.025 30.025)"/><use xlink:href="#t" transform="matrix(1,0,0,1,434.3540404471372,2264.6292915199715) translate(250.975 30.025)"/><use xlink:href="#C" transform="matrix(1,0,0,1,434.3540404471372,2264.6292915199715) translate(270.975 30.025)"/><use xlink:href="#U" transform="matrix(1,0,0,1,434.3540404471372,2264.6292915199715) translate(296.975 30.025)"/><use xlink:href="#E" transform="matrix(1,0,0,1,434.3540404471372,2264.6292915199715) translate(316.975 30.025)"/><use xlink:href="#S" transform="matrix(1,0,0,1,434.3540404471372,2264.6292915199715) translate(336.975 30.025)"/></g><path d="M665.02 2379.6H960.4" stroke="#333" fill="none"/><path d="M665.03 2380.1v-1z" stroke="#333" stroke-width=".05" fill="#333"/><path d="M975.15 2379.6l-14.26 4.64v-9.27z" stroke="#333" fill="#333"/><g><use xlink:href="#z" transform="matrix(1,0,0,1,728.2459595528629,2354.0051148799694) translate(0.0049999999999954525 14.4)"/></g><path d="M781.6 2399.57h437.05l12 12v48H781.6z" stroke="#333" fill="#fff"/><path d="M1218.65 2400.05v11.52h11.52" stroke="#333" fill="#fff"/><g><use xlink:href="#A" transform="matrix(1,0,0,1,786.6025258127827,2404.5728793599674) translate(87.025 30.025)"/><use xlink:href="#B" transform="matrix(1,0,0,1,786.6025258127827,2404.5728793599674) translate(147.025 30.025)"/><use xlink:href="#t" transform="matrix(1,0,0,1,786.6025258127827,2404.5728793599674) translate(250.975 30.025)"/><use xlink:href="#C" transform="matrix(1,0,0,1,786.6025258127827,2404.5728793599674) translate(270.975 30.025)"/><use xlink:href="#U" transform="matrix(1,0,0,1,786.6025258127827,2404.5728793599674) translate(296.975 30.025)"/><use xlink:href="#E" transform="matrix(1,0,0,1,786.6025258127827,2404.5728793599674) translate(316.975 30.025)"/><use xlink:href="#S" transform="matrix(1,0,0,1,786.6025258127827,2404.5728793599674) translate(336.975 30.025)"/></g><defs><path fill="#a9afb8" d="M169-182c-1-43-94-46-97-3 18 66 151 10 154 114 3 95-165 93-204 36-6-8-10-19-12-30l50-8c3 46 112 56 116 5-17-69-150-10-154-114-4-87 153-88 188-35 5 8 8 18 10 28" id="V"/><path fill="#a9afb8" d="M115-3C79 11 28 4 28-45v-112H4v-33h27l15-45h31v45h36v33H77v99c-1 23 16 31 38 25v30" id="W"/><path fill="#a9afb8" d="M133-34C117-15 103 5 69 4 32 3 11-16 11-54c-1-60 55-63 116-61 1-26-3-47-28-47-18 1-26 9-28 27l-52-2c7-38 36-58 82-57s74 22 75 68l1 82c-1 14 12 18 25 15v27c-30 8-71 5-69-32zm-48 3c29 0 43-24 42-57-32 0-66-3-65 30 0 17 8 27 23 27" id="X"/><path fill="#a9afb8" d="M185-48c-13 30-37 53-82 52C43 2 14-33 14-96s30-98 90-98c62 0 83 45 84 108H66c0 31 8 55 39 56 18 0 30-7 34-22zm-45-69c5-46-57-63-70-21-2 6-4 13-4 21h74" id="Y"/><g id="a"><use transform="matrix(0.0728395061728395,0,0,0.0728395061728395,0,0)" xlink:href="#V"/><use transform="matrix(0.0728395061728395,0,0,0.0728395061728395,17.48148148148148,0)" xlink:href="#W"/><use transform="matrix(0.0728395061728395,0,0,0.0728395061728395,26.14938271604938,0)" xlink:href="#X"/><use transform="matrix(0.0728395061728395,0,0,0.0728395061728395,40.717283950617286,0)" xlink:href="#W"/><use transform="matrix(0.0728395061728395,0,0,0.0728395061728395,49.38518518518518,0)" xlink:href="#Y"/></g><path fill="#a9afb8" d="M199 0l-22-63H83L61 0H9l90-248h61L250 0h-51zm-33-102l-36-108c-10 38-24 72-36 108h72" id="Z"/><path fill="#a9afb8" d="M24-248c93 1 206-16 204 79-1 75-69 88-152 82V0H24v-248zm52 121c47 0 100 7 100-41 0-47-54-39-100-39v80" id="aa"/><path fill="#a9afb8" d="M24 0v-248h52V0H24" id="ab"/><g id="b"><use transform="matrix(0.0728395061728395,0,0,0.0728395061728395,0,0)" xlink:href="#Z"/><use transform="matrix(0.0728395061728395,0,0,0.0728395061728395,18.86543209876543,0)" xlink:href="#aa"/><use transform="matrix(0.0728395061728395,0,0,0.0728395061728395,36.34691358024691,0)" xlink:href="#ab"/></g><path fill="#a9afb8" d="M123 10C108 53 80 86 19 72V37c35 8 53-11 59-39L3-190h52l48 148c12-52 28-100 44-148h51" id="ac"/><path fill="#a9afb8" d="M135-194c87-1 58 113 63 194h-50c-7-57 23-157-34-157-59 0-34 97-39 157H25l-1-190h47c2 12-1 28 3 38 12-26 28-41 61-42" id="ad"/><path fill="#a9afb8" d="M190-63c-7 42-38 67-86 67-59 0-84-38-90-98-12-110 154-137 174-36l-49 2c-2-19-15-32-35-32-30 0-35 28-38 64-6 74 65 87 74 30" id="ae"/><g id="c"><use transform="matrix(0.0728395061728395,0,0,0.0728395061728395,0,0)" xlink:href="#V"/><use transform="matrix(0.0728395061728395,0,0,0.0728395061728395,17.48148148148148,0)" xlink:href="#ac"/><use transform="matrix(0.0728395061728395,0,0,0.0728395061728395,32.04938271604938,0)" xlink:href="#ad"/><use transform="matrix(0.0728395061728395,0,0,0.0728395061728395,48.00123456790123,0)" xlink:href="#ae"/></g><path fill="#a9afb8" d="M135-150c-39-12-60 13-60 57V0H25l-1-190h47c2 13-1 29 3 40 6-28 27-53 61-41v41" id="af"/><path fill="#a9afb8" d="M110-194c64 0 96 36 96 99 0 64-35 99-97 99-61 0-95-36-95-99 0-62 34-99 96-99zm-1 164c35 0 45-28 45-65 0-40-10-65-43-65-34 0-45 26-45 65 0 36 10 65 43 65" id="ag"/><path fill="#a9afb8" d="M25 0v-261h50V0H25" id="ah"/><g id="d"><use transform="matrix(0.0728395061728395,0,0,0.0728395061728395,0,0)" xlink:href="#aa"/><use transform="matrix(0.0728395061728395,0,0,0.0728395061728395,17.48148148148148,0)" xlink:href="#af"/><use transform="matrix(0.0728395061728395,0,0,0.0728395061728395,27.679012345679013,0)" xlink:href="#ag"/><use transform="matrix(0.0728395061728395,0,0,0.0728395061728395,43.63086419753086,0)" xlink:href="#W"/><use transform="matrix(0.0728395061728395,0,0,0.0728395061728395,52.29876543209876,0)" xlink:href="#ag"/><use transform="matrix(0.0728395061728395,0,0,0.0728395061728395,68.25061728395062,0)" xlink:href="#ae"/><use transform="matrix(0.0728395061728395,0,0,0.0728395061728395,82.81851851851852,0)" xlink:href="#ag"/><use transform="matrix(0.0728395061728395,0,0,0.0728395061728395,98.77037037037037,0)" xlink:href="#ah"/></g><path fill="#a9afb8" d="M195 0l-74-108L45 0H8l94-129-87-119h37l69 98 67-98h37l-84 118L233 0h-38" id="ai"/><path fill="#a9afb8" d="M24-231v-30h32v30H24zM24 0v-190h32V0H24" id="aj"/><path fill="#a9afb8" d="M141-36C126-15 110 5 73 4 37 3 15-17 15-53c-1-64 63-63 125-63 3-35-9-54-41-54-24 1-41 7-42 31l-33-3c5-37 33-52 76-52 45 0 72 20 72 64v82c-1 20 7 32 28 27v20c-31 9-61-2-59-35zM48-53c0 20 12 33 32 33 41-3 63-29 60-74-43 2-92-5-92 41" id="ak"/><path fill="#a9afb8" d="M100-194c62-1 85 37 85 99 1 63-27 99-86 99S16-35 15-95c0-66 28-99 85-99zM99-20c44 1 53-31 53-75 0-43-8-75-51-75s-53 32-53 75 10 74 51 75" id="al"/><path fill="#a9afb8" d="M210-169c-67 3-38 105-44 169h-31v-121c0-29-5-50-35-48C34-165 62-65 56 0H25l-1-190h30c1 10-1 24 2 32 10-44 99-50 107 0 11-21 27-35 58-36 85-2 47 119 55 194h-31v-121c0-29-5-49-35-48" id="am"/><path fill="#a9afb8" d="M100-194c63 0 86 42 84 106H49c0 40 14 67 53 68 26 1 43-12 49-29l28 8c-11 28-37 45-77 45C44 4 14-33 15-96c1-61 26-98 85-98zm52 81c6-60-76-77-97-28-3 7-6 17-6 28h103" id="an"/><path fill="#a9afb8" d="M117-194c89-4 53 116 60 194h-32v-121c0-31-8-49-39-48C34-167 62-67 57 0H25l-1-190h30c1 10-1 24 2 32 11-22 29-35 61-36" id="ao"/><path fill="#a9afb8" d="M177-190C167-65 218 103 67 71c-23-6-38-20-44-43l32-5c15 47 100 32 89-28v-30C133-14 115 1 83 1 29 1 15-40 15-95c0-56 16-97 71-98 29-1 48 16 59 35 1-10 0-23 2-32h30zM94-22c36 0 50-32 50-73 0-42-14-75-50-75-39 0-46 34-46 75s6 73 46 73" id="ap"/><g id="e"><use transform="matrix(0.04248971193415638,0,0,0.04248971193415638,0,0)" xlink:href="#ai"/><use transform="matrix(0.04248971193415638,0,0,0.04248971193415638,10.19753086419753,0)" xlink:href="#aj"/><use transform="matrix(0.04248971193415638,0,0,0.04248971193415638,13.554218106995881,0)" xlink:href="#ak"/><use transform="matrix(0.04248971193415638,0,0,0.04248971193415638,22.05216049382716,0)" xlink:href="#al"/><use transform="matrix(0.04248971193415638,0,0,0.04248971193415638,30.550102880658436,0)" xlink:href="#am"/><use transform="matrix(0.04248971193415638,0,0,0.04248971193415638,43.254526748971195,0)" xlink:href="#an"/><use transform="matrix(0.04248971193415638,0,0,0.04248971193415638,51.752469135802464,0)" xlink:href="#ao"/><use transform="matrix(0.04248971193415638,0,0,0.04248971193415638,60.250411522633755,0)" xlink:href="#ap"/></g><path fill="#a9afb8" d="M32 76v-337h29V76H32" id="aq"/><use transform="matrix(0.04248971193415638,0,0,0.04248971193415638,0,0)" xlink:href="#aq" id="f"/><path fill="#a9afb8" d="M205 0l-28-72H64L36 0H1l101-248h38L239 0h-34zm-38-99l-47-123c-12 45-31 82-46 123h93" id="ar"/><path fill="#a9afb8" d="M115-194c55 1 70 41 70 98S169 2 115 4C84 4 66-9 55-30l1 105H24l-1-265h31l2 30c10-21 28-34 59-34zm-8 174c40 0 45-34 45-75s-6-73-45-74c-42 0-51 32-51 76 0 43 10 73 51 73" id="as"/><path fill="#a9afb8" d="M114-163C36-179 61-72 57 0H25l-1-190h30c1 12-1 29 2 39 6-27 23-49 58-41v29" id="at"/><path fill="#a9afb8" d="M24 0v-261h32V0H24" id="au"/><g id="g"><use transform="matrix(0.04248971193415638,0,0,0.04248971193415638,0,0)" xlink:href="#ar"/><use transform="matrix(0.04248971193415638,0,0,0.04248971193415638,10.19753086419753,0)" xlink:href="#as"/><use transform="matrix(0.04248971193415638,0,0,0.04248971193415638,18.695473251028805,0)" xlink:href="#at"/><use transform="matrix(0.04248971193415638,0,0,0.04248971193415638,23.751748971193415,0)" xlink:href="#aj"/><use transform="matrix(0.04248971193415638,0,0,0.04248971193415638,27.10843621399177,0)" xlink:href="#au"/></g><path fill="#a9afb8" d="M27 0v-27h64v-190l-56 39v-29l58-41h29v221h61V0H27" id="av"/><path fill="#a9afb8" d="M155-56V0h-30v-56H8v-25l114-167h33v167h35v25h-35zm-30-156c-27 46-58 90-88 131h88v-131" id="aw"/><path fill="#a9afb8" d="M68-38c1 34 0 65-14 84H32c9-13 17-26 17-46H33v-38h35" id="ax"/><g id="h"><use transform="matrix(0.04248971193415638,0,0,0.04248971193415638,0,0)" xlink:href="#av"/><use transform="matrix(0.04248971193415638,0,0,0.04248971193415638,8.497942386831275,0)" xlink:href="#aw"/><use transform="matrix(0.04248971193415638,0,0,0.04248971193415638,16.99588477366255,0)" xlink:href="#ax"/></g><path fill="#a9afb8" d="M101-251c82-7 93 87 43 132L82-64C71-53 59-42 53-27h129V0H18c2-99 128-94 128-182 0-28-16-43-45-43s-46 15-49 41l-32-3c6-41 34-60 81-64" id="ay"/><path fill="#a9afb8" d="M101-251c68 0 85 55 85 127S166 4 100 4C33 4 14-52 14-124c0-73 17-127 87-127zm-1 229c47 0 54-49 54-102s-4-102-53-102c-51 0-55 48-55 102 0 53 5 102 54 102" id="az"/><g id="i"><use transform="matrix(0.04248971193415638,0,0,0.04248971193415638,0,0)" xlink:href="#ay"/><use transform="matrix(0.04248971193415638,0,0,0.04248971193415638,8.497942386831275,0)" xlink:href="#az"/><use transform="matrix(0.04248971193415638,0,0,0.04248971193415638,16.99588477366255,0)" xlink:href="#ay"/><use transform="matrix(0.04248971193415638,0,0,0.04248971193415638,25.493827160493822,0)" xlink:href="#ay"/></g><path fill="#333" d="M30-248c87 1 191-15 191 75 0 78-77 80-158 76V0H30v-248zm33 125c57 0 124 11 124-50 0-59-68-47-124-48v98" id="aA"/><path fill="#333" d="M141-36C126-15 110 5 73 4 37 3 15-17 15-53c-1-64 63-63 125-63 3-35-9-54-41-54-24 1-41 7-42 31l-33-3c5-37 33-52 76-52 45 0 72 20 72 64v82c-1 20 7 32 28 27v20c-31 9-61-2-59-35zM48-53c0 20 12 33 32 33 41-3 63-29 60-74-43 2-92-5-92 41" id="aB"/><path fill="#333" d="M114-163C36-179 61-72 57 0H25l-1-190h30c1 12-1 29 2 39 6-27 23-49 58-41v29" id="aC"/><path fill="#333" d="M59-47c-2 24 18 29 38 22v24C64 9 27 4 27-40v-127H5v-23h24l9-43h21v43h35v23H59v120" id="aD"/><path fill="#333" d="M24-231v-30h32v30H24zM24 0v-190h32V0H24" id="aE"/><path fill="#333" d="M96-169c-40 0-48 33-48 73s9 75 48 75c24 0 41-14 43-38l32 2c-6 37-31 61-74 61-59 0-76-41-82-99-10-93 101-131 147-64 4 7 5 14 7 22l-32 3c-4-21-16-35-41-35" id="aF"/><path fill="#333" d="M115-194c55 1 70 41 70 98S169 2 115 4C84 4 66-9 55-30l1 105H24l-1-265h31l2 30c10-21 28-34 59-34zm-8 174c40 0 45-34 45-75s-6-73-45-74c-42 0-51 32-51 76 0 43 10 73 51 73" id="aG"/><path fill="#333" d="M117-194c89-4 53 116 60 194h-32v-121c0-31-8-49-39-48C34-167 62-67 57 0H25l-1-190h30c1 10-1 24 2 32 11-22 29-35 61-36" id="aH"/><g id="j"><use transform="matrix(0.05,0,0,0.05,0,0)" xlink:href="#aA"/><use transform="matrix(0.05,0,0,0.05,12,0)" xlink:href="#aB"/><use transform="matrix(0.05,0,0,0.05,22,0)" xlink:href="#aC"/><use transform="matrix(0.05,0,0,0.05,27.950000000000003,0)" xlink:href="#aD"/><use transform="matrix(0.05,0,0,0.05,32.95,0)" xlink:href="#aE"/><use transform="matrix(0.05,0,0,0.05,36.900000000000006,0)" xlink:href="#aF"/><use transform="matrix(0.05,0,0,0.05,45.900000000000006,0)" xlink:href="#aE"/><use transform="matrix(0.05,0,0,0.05,49.85000000000001,0)" xlink:href="#aG"/><use transform="matrix(0.05,0,0,0.05,59.85,0)" xlink:href="#aB"/><use transform="matrix(0.05,0,0,0.05,69.85000000000001,0)" xlink:href="#aH"/><use transform="matrix(0.05,0,0,0.05,79.85000000000001,0)" xlink:href="#aD"/></g><path fill="#333" d="M205 0l-28-72H64L36 0H1l101-248h38L239 0h-34zm-38-99l-47-123c-12 45-31 82-46 123h93" id="aI"/><use transform="matrix(0.05,0,0,0.05,0,0)" xlink:href="#aI" id="k"/><path fill="#333" d="M160-131c35 5 61 23 61 61C221 17 115-2 30 0v-248c76 3 177-17 177 60 0 33-19 50-47 57zm-97-11c50-1 110 9 110-42 0-47-63-36-110-37v79zm0 115c55-2 124 14 124-45 0-56-70-42-124-44v89" id="aJ"/><use transform="matrix(0.05,0,0,0.05,0,0)" xlink:href="#aJ" id="l"/><path fill="#333" d="M140-251c81 0 123 46 123 126C263-46 219 4 140 4 59 4 17-45 17-125s42-126 123-126zm0 227c63 0 89-41 89-101s-29-99-89-99c-61 0-89 39-89 99S79-25 140-24" id="aK"/><g id="m"><use transform="matrix(0.05,0,0,0.05,0,0)" xlink:href="#aK"/><use transform="matrix(0.05,0,0,0.05,14,0)" xlink:href="#aG"/><use transform="matrix(0.05,0,0,0.05,24,0)" xlink:href="#aD"/></g><path fill="#333" d="M26 75v-336h71v23H56V52h41v23H26" id="aL"/><path fill="#333" d="M33 0v-248h34V0H33" id="aM"/><path fill="#333" d="M24 0v-261h32V0H24" id="aN"/><g id="n"><use transform="matrix(0.05,0,0,0.05,0,0)" xlink:href="#aL"/><use transform="matrix(0.05,0,0,0.05,5,0)" xlink:href="#aM"/><use transform="matrix(0.05,0,0,0.05,10,0)" xlink:href="#aH"/><use transform="matrix(0.05,0,0,0.05,20,0)" xlink:href="#aE"/><use transform="matrix(0.05,0,0,0.05,23.95,0)" xlink:href="#aD"/><use transform="matrix(0.05,0,0,0.05,28.950000000000003,0)" xlink:href="#aE"/><use transform="matrix(0.05,0,0,0.05,32.9,0)" xlink:href="#aB"/><use transform="matrix(0.05,0,0,0.05,42.9,0)" xlink:href="#aN"/></g><path fill="#333" d="M185-189c-5-48-123-54-124 2 14 75 158 14 163 119 3 78-121 87-175 55-17-10-28-26-33-46l33-7c5 56 141 63 141-1 0-78-155-14-162-118-5-82 145-84 179-34 5 7 8 16 11 25" id="aO"/><path fill="#333" d="M179-190L93 31C79 59 56 82 12 73V49c39 6 53-20 64-50L1-190h34L92-34l54-156h33" id="aP"/><path fill="#333" d="M3 75V52h41v-290H3v-23h71V75H3" id="aQ"/><g id="o"><use transform="matrix(0.05,0,0,0.05,0,0)" xlink:href="#aO"/><use transform="matrix(0.05,0,0,0.05,12,0)" xlink:href="#aP"/><use transform="matrix(0.05,0,0,0.05,21,0)" xlink:href="#aH"/><use transform="matrix(0.05,0,0,0.05,31,0)" xlink:href="#aF"/><use transform="matrix(0.05,0,0,0.05,40,0)" xlink:href="#aQ"/></g><path fill="#333" d="M135-143c-3-34-86-38-87 0 15 53 115 12 119 90S17 21 10-45l28-5c4 36 97 45 98 0-10-56-113-15-118-90-4-57 82-63 122-42 12 7 21 19 24 35" id="aR"/><g id="p"><use transform="matrix(0.05,0,0,0.05,0,0)" xlink:href="#aO"/><use transform="matrix(0.05,0,0,0.05,12,0)" xlink:href="#aD"/><use transform="matrix(0.05,0,0,0.05,17,0)" xlink:href="#aB"/><use transform="matrix(0.05,0,0,0.05,27,0)" xlink:href="#aC"/><use transform="matrix(0.05,0,0,0.05,32.95,0)" xlink:href="#aD"/><use transform="matrix(0.05,0,0,0.05,37.95,0)" xlink:href="#aR"/></g><path fill="#333" d="M84 4C-5 8 30-112 23-190h32v120c0 31 7 50 39 49 72-2 45-101 50-169h31l1 190h-30c-1-10 1-25-2-33-11 22-28 36-60 37" id="aS"/><g id="q"><use transform="matrix(0.05,0,0,0.05,0,0)" xlink:href="#aS"/><use transform="matrix(0.05,0,0,0.05,10,0)" xlink:href="#aG"/></g><path fill="#333" d="M100-194c63 0 86 42 84 106H49c0 40 14 67 53 68 26 1 43-12 49-29l28 8c-11 28-37 45-77 45C44 4 14-33 15-96c1-61 26-98 85-98zm52 81c6-60-76-77-97-28-3 7-6 17-6 28h103" id="aT"/><g id="r"><use transform="matrix(0.05,0,0,0.05,0,0)" xlink:href="#aO"/><use transform="matrix(0.05,0,0,0.05,12,0)" xlink:href="#aT"/><use transform="matrix(0.05,0,0,0.05,22,0)" xlink:href="#aD"/></g><path fill="#333" d="M108 0H70L1-190h34L89-25l56-165h34" id="aU"/><g id="s"><use transform="matrix(0.05,0,0,0.05,0,0)" xlink:href="#aU"/><use transform="matrix(0.05,0,0,0.05,9,0)" xlink:href="#aB"/><use transform="matrix(0.05,0,0,0.05,19,0)" xlink:href="#aN"/><use transform="matrix(0.05,0,0,0.05,22.95,0)" xlink:href="#aS"/><use transform="matrix(0.05,0,0,0.05,32.95,0)" xlink:href="#aT"/></g><path fill="#333" d="M100-194c62-1 85 37 85 99 1 63-27 99-86 99S16-35 15-95c0-66 28-99 85-99zM99-20c44 1 53-31 53-75 0-43-8-75-51-75s-53 32-53 75 10 74 51 75" id="aV"/><g id="t"><use transform="matrix(0.05,0,0,0.05,0,0)" xlink:href="#aD"/><use transform="matrix(0.05,0,0,0.05,5,0)" xlink:href="#aV"/></g><path fill="#333" d="M54-142c48-35 137-8 131 61C196 18 31 33 14-55l32-4c7 23 22 37 52 37 35-1 51-22 54-58 4-55-73-65-99-34H22l8-134h141v27H59" id="aW"/><use transform="matrix(0.05,0,0,0.05,0,0)" xlink:href="#aW" id="u"/><path fill="#333" d="M101-234c-31-9-42 10-38 44h38v23H63V0H32v-167H5v-23h27c-7-52 17-82 69-68v24" id="aX"/><path fill="#333" d="M106-169C34-169 62-67 57 0H25v-261h32l-1 103c12-21 28-36 61-36 89 0 53 116 60 194h-32v-121c2-32-8-49-39-48" id="aY"/><path fill="#333" d="M240 0l2-218c-23 76-54 145-80 218h-23L58-218 59 0H30v-248h44l77 211c21-75 51-140 76-211h43V0h-30" id="aZ"/><path fill="#333" d="M177-190C167-65 218 103 67 71c-23-6-38-20-44-43l32-5c15 47 100 32 89-28v-30C133-14 115 1 83 1 29 1 15-40 15-95c0-56 16-97 71-98 29-1 48 16 59 35 1-10 0-23 2-32h30zM94-22c36 0 50-32 50-73 0-42-14-75-50-75-39 0-46 34-46 75s6 73 46 73" id="ba"/><path fill="#333" d="M87 75C49 33 22-17 22-94c0-76 28-126 65-167h31c-38 41-64 92-64 168S80 34 118 75H87" id="bb"/><path fill="#333" d="M33-261c38 41 65 92 65 168S71 34 33 75H2C39 34 66-17 66-93S39-220 2-261h31" id="bc"/><g id="v"><use transform="matrix(0.05,0,0,0.05,0,0)" xlink:href="#aC"/><use transform="matrix(0.05,0,0,0.05,5.95,0)" xlink:href="#aT"/><use transform="matrix(0.05,0,0,0.05,15.949999999999998,0)" xlink:href="#aX"/><use transform="matrix(0.05,0,0,0.05,20.95,0)" xlink:href="#aC"/><use transform="matrix(0.05,0,0,0.05,26.899999999999995,0)" xlink:href="#aT"/><use transform="matrix(0.05,0,0,0.05,36.9,0)" xlink:href="#aR"/><use transform="matrix(0.05,0,0,0.05,45.9,0)" xlink:href="#aY"/><use transform="matrix(0.05,0,0,0.05,55.900000000000006,0)" xlink:href="#aZ"/><use transform="matrix(0.05,0,0,0.05,70.85,0)" xlink:href="#aT"/><use transform="matrix(0.05,0,0,0.05,80.85,0)" xlink:href="#aR"/><use transform="matrix(0.05,0,0,0.05,89.85,0)" xlink:href="#aR"/><use transform="matrix(0.05,0,0,0.05,98.85,0)" xlink:href="#aB"/><use transform="matrix(0.05,0,0,0.05,108.84999999999998,0)" xlink:href="#ba"/><use transform="matrix(0.05,0,0,0.05,118.84999999999998,0)" xlink:href="#aT"/><use transform="matrix(0.05,0,0,0.05,128.85,0)" xlink:href="#bb"/><use transform="matrix(0.05,0,0,0.05,134.79999999999998,0)" xlink:href="#bc"/></g><g id="w"><use transform="matrix(0.05,0,0,0.05,0,0)" xlink:href="#aG"/><use transform="matrix(0.05,0,0,0.05,10,0)" xlink:href="#aC"/><use transform="matrix(0.05,0,0,0.05,15.949999999999998,0)" xlink:href="#aV"/><use transform="matrix(0.05,0,0,0.05,25.950000000000003,0)" xlink:href="#aF"/><use transform="matrix(0.05,0,0,0.05,34.95,0)" xlink:href="#aT"/><use transform="matrix(0.05,0,0,0.05,44.95,0)" xlink:href="#aR"/><use transform="matrix(0.05,0,0,0.05,53.95,0)" xlink:href="#aR"/></g><g id="x"><use transform="matrix(0.05,0,0,0.05,0,0)" xlink:href="#aC"/><use transform="matrix(0.05,0,0,0.05,5.95,0)" xlink:href="#aT"/><use transform="matrix(0.05,0,0,0.05,15.949999999999998,0)" xlink:href="#aX"/><use transform="matrix(0.05,0,0,0.05,20.95,0)" xlink:href="#aC"/><use transform="matrix(0.05,0,0,0.05,26.899999999999995,0)" xlink:href="#aT"/><use transform="matrix(0.05,0,0,0.05,36.9,0)" xlink:href="#aR"/><use transform="matrix(0.05,0,0,0.05,45.9,0)" xlink:href="#aY"/></g><path fill="#333" d="M210-169c-67 3-38 105-44 169h-31v-121c0-29-5-50-35-48C34-165 62-65 56 0H25l-1-190h30c1 10-1 24 2 32 10-44 99-50 107 0 11-21 27-35 58-36 85-2 47 119 55 194h-31v-121c0-29-5-49-35-48" id="bd"/><g id="y"><use transform="matrix(0.05,0,0,0.05,0,0)" xlink:href="#bd"/><use transform="matrix(0.05,0,0,0.05,14.950000000000001,0)" xlink:href="#aT"/><use transform="matrix(0.05,0,0,0.05,24.950000000000003,0)" xlink:href="#aR"/><use transform="matrix(0.05,0,0,0.05,33.95,0)" xlink:href="#aR"/><use transform="matrix(0.05,0,0,0.05,42.95,0)" xlink:href="#aB"/><use transform="matrix(0.05,0,0,0.05,52.95,0)" xlink:href="#ba"/><use transform="matrix(0.05,0,0,0.05,62.95,0)" xlink:href="#aT"/></g><path fill="#333" d="M137 0h-34L2-248h35l83 218 83-218h36" id="be"/><g id="z"><use transform="matrix(0.05,0,0,0.05,0,0)" xlink:href="#aR"/><use transform="matrix(0.05,0,0,0.05,9,0)" xlink:href="#aD"/><use transform="matrix(0.05,0,0,0.05,14,0)" xlink:href="#aB"/><use transform="matrix(0.05,0,0,0.05,24,0)" xlink:href="#aD"/><use transform="matrix(0.05,0,0,0.05,29,0)" xlink:href="#aT"/><use transform="matrix(0.05,0,0,0.05,39,0)" xlink:href="#be"/><use transform="matrix(0.05,0,0,0.05,50,0)" xlink:href="#aT"/><use transform="matrix(0.05,0,0,0.05,60,0)" xlink:href="#aF"/><use transform="matrix(0.05,0,0,0.05,69,0)" xlink:href="#aD"/><use transform="matrix(0.05,0,0,0.05,74,0)" xlink:href="#aV"/><use transform="matrix(0.05,0,0,0.05,84,0)" xlink:href="#aC"/><use transform="matrix(0.05,0,0,0.05,89.95,0)" xlink:href="#aZ"/><use transform="matrix(0.05,0,0,0.05,104.9,0)" xlink:href="#aT"/><use transform="matrix(0.05,0,0,0.05,114.9,0)" xlink:href="#aR"/><use transform="matrix(0.05,0,0,0.05,123.9,0)" xlink:href="#aR"/><use transform="matrix(0.05,0,0,0.05,132.9,0)" xlink:href="#aB"/><use transform="matrix(0.05,0,0,0.05,142.9,0)" xlink:href="#ba"/><use transform="matrix(0.05,0,0,0.05,152.9,0)" xlink:href="#aT"/><use transform="matrix(0.05,0,0,0.05,162.9,0)" xlink:href="#bb"/><use transform="matrix(0.05,0,0,0.05,168.85,0)" xlink:href="#aB"/><use transform="matrix(0.05,0,0,0.05,178.85,0)" xlink:href="#bc"/></g><path fill="#333" d="M85-194c31 0 48 13 60 33l-1-100h32l1 261h-30c-2-10 0-23-3-31C134-8 116 4 85 4 32 4 16-35 15-94c0-66 23-100 70-100zm9 24c-40 0-46 34-46 75 0 40 6 74 45 74 42 0 51-32 51-76 0-42-9-74-50-73" id="bf"/><g id="A"><use transform="matrix(0.05,0,0,0.05,0,0)" xlink:href="#aS"/><use transform="matrix(0.05,0,0,0.05,10,0)" xlink:href="#aG"/><use transform="matrix(0.05,0,0,0.05,20,0)" xlink:href="#bf"/><use transform="matrix(0.05,0,0,0.05,30,0)" xlink:href="#aB"/><use transform="matrix(0.05,0,0,0.05,40,0)" xlink:href="#aD"/><use transform="matrix(0.05,0,0,0.05,45,0)" xlink:href="#aT"/></g><g id="B"><use transform="matrix(0.05,0,0,0.05,0,0)" xlink:href="#aR"/><use transform="matrix(0.05,0,0,0.05,9,0)" xlink:href="#aD"/><use transform="matrix(0.05,0,0,0.05,14,0)" xlink:href="#aB"/><use transform="matrix(0.05,0,0,0.05,24,0)" xlink:href="#aD"/><use transform="matrix(0.05,0,0,0.05,29,0)" xlink:href="#aT"/><use transform="matrix(0.05,0,0,0.05,39,0)" xlink:href="#be"/><use transform="matrix(0.05,0,0,0.05,50,0)" xlink:href="#aT"/><use transform="matrix(0.05,0,0,0.05,60,0)" xlink:href="#aF"/><use transform="matrix(0.05,0,0,0.05,69,0)" xlink:href="#aD"/><use transform="matrix(0.05,0,0,0.05,74,0)" xlink:href="#aV"/><use transform="matrix(0.05,0,0,0.05,84,0)" xlink:href="#aC"/><use transform="matrix(0.05,0,0,0.05,89.95,0)" xlink:href="#aR"/></g><path fill="#333" d="M39-94c74 12-11 154 75 146v23c-44 4-70-10-70-52C44-23 55-84 6-82v-22c81 4-7-162 84-157h24v23c-82-15-2 131-75 144" id="bg"/><path fill="#333" d="M33-154v-36h34v36H33zM33 0v-36h34V0H33" id="bh"/><g id="C"><use transform="matrix(0.05,0,0,0.05,0,0)" xlink:href="#bg"/><use transform="matrix(0.05,0,0,0.05,6,0)" xlink:href="#aB"/><use transform="matrix(0.05,0,0,0.05,16,0)" xlink:href="#bh"/></g><path fill="#333" d="M27 0v-27h64v-190l-56 39v-29l58-41h29v221h61V0H27" id="bi"/><path fill="#333" d="M68-38c1 34 0 65-14 84H32c9-13 17-26 17-46H33v-38h35" id="bj"/><g id="D"><use transform="matrix(0.05,0,0,0.05,0,0)" xlink:href="#bi"/><use transform="matrix(0.05,0,0,0.05,10,0)" xlink:href="#bj"/></g><path fill="#333" d="M115-194c53 0 69 39 70 98 0 66-23 100-70 100C84 3 66-7 56-30L54 0H23l1-261h32v101c10-23 28-34 59-34zm-8 174c40 0 45-34 45-75 0-40-5-75-45-74-42 0-51 32-51 76 0 43 10 73 51 73" id="bk"/><g id="E"><use transform="matrix(0.05,0,0,0.05,0,0)" xlink:href="#bk"/><use transform="matrix(0.05,0,0,0.05,10,0)" xlink:href="#bh"/></g><path fill="#333" d="M101-251c68 0 85 55 85 127S166 4 100 4C33 4 14-52 14-124c0-73 17-127 87-127zm-1 229c47 0 54-49 54-102s-4-102-53-102c-51 0-55 48-55 102 0 53 5 102 54 102" id="bl"/><path fill="#333" d="M76-40C78 24 84 88 6 75V52C86 64 9-79 80-94c-40-6-34-59-34-106 1-29-11-41-40-38v-23c44-4 70 10 70 52 0 47-12 108 38 105v22c-26 1-39 14-38 42" id="bm"/><g id="F"><use transform="matrix(0.05,0,0,0.05,0,0)" xlink:href="#bl"/><use transform="matrix(0.05,0,0,0.05,10,0)" xlink:href="#bm"/></g><g id="G"><use transform="matrix(0.05,0,0,0.05,0,0)" xlink:href="#aR"/><use transform="matrix(0.05,0,0,0.05,9,0)" xlink:href="#aD"/><use transform="matrix(0.05,0,0,0.05,14,0)" xlink:href="#aB"/><use transform="matrix(0.05,0,0,0.05,24,0)" xlink:href="#aD"/><use transform="matrix(0.05,0,0,0.05,29,0)" xlink:href="#aT"/><use transform="matrix(0.05,0,0,0.05,39,0)" xlink:href="#be"/><use transform="matrix(0.05,0,0,0.05,50,0)" xlink:href="#aT"/><use transform="matrix(0.05,0,0,0.05,60,0)" xlink:href="#aF"/><use transform="matrix(0.05,0,0,0.05,69,0)" xlink:href="#aD"/><use transform="matrix(0.05,0,0,0.05,74,0)" xlink:href="#aV"/><use transform="matrix(0.05,0,0,0.05,84,0)" xlink:href="#aC"/><use transform="matrix(0.05,0,0,0.05,89.95,0)" xlink:href="#aZ"/><use transform="matrix(0.05,0,0,0.05,104.9,0)" xlink:href="#aT"/><use transform="matrix(0.05,0,0,0.05,114.9,0)" xlink:href="#aR"/><use transform="matrix(0.05,0,0,0.05,123.9,0)" xlink:href="#aR"/><use transform="matrix(0.05,0,0,0.05,132.9,0)" xlink:href="#aB"/><use transform="matrix(0.05,0,0,0.05,142.9,0)" xlink:href="#ba"/><use transform="matrix(0.05,0,0,0.05,152.9,0)" xlink:href="#aT"/><use transform="matrix(0.05,0,0,0.05,162.9,0)" xlink:href="#bb"/><use transform="matrix(0.05,0,0,0.05,168.85,0)" xlink:href="#bk"/><use transform="matrix(0.05,0,0,0.05,178.85,0)" xlink:href="#bc"/></g><g id="H"><use transform="matrix(0.05,0,0,0.05,0,0)" xlink:href="#aR"/><use transform="matrix(0.05,0,0,0.05,9,0)" xlink:href="#aD"/><use transform="matrix(0.05,0,0,0.05,14,0)" xlink:href="#aB"/><use transform="matrix(0.05,0,0,0.05,24,0)" xlink:href="#aD"/><use transform="matrix(0.05,0,0,0.05,29,0)" xlink:href="#aT"/><use transform="matrix(0.05,0,0,0.05,39,0)" xlink:href="#be"/><use transform="matrix(0.05,0,0,0.05,50,0)" xlink:href="#aT"/><use transform="matrix(0.05,0,0,0.05,60,0)" xlink:href="#aF"/><use transform="matrix(0.05,0,0,0.05,69,0)" xlink:href="#aD"/><use transform="matrix(0.05,0,0,0.05,74,0)" xlink:href="#aV"/><use transform="matrix(0.05,0,0,0.05,84,0)" xlink:href="#aC"/><use transform="matrix(0.05,0,0,0.05,89.95,0)" xlink:href="#aZ"/><use transform="matrix(0.05,0,0,0.05,104.9,0)" xlink:href="#aT"/><use transform="matrix(0.05,0,0,0.05,114.9,0)" xlink:href="#aR"/><use transform="matrix(0.05,0,0,0.05,123.9,0)" xlink:href="#aR"/><use transform="matrix(0.05,0,0,0.05,132.9,0)" xlink:href="#aB"/><use transform="matrix(0.05,0,0,0.05,142.9,0)" xlink:href="#ba"/><use transform="matrix(0.05,0,0,0.05,152.9,0)" xlink:href="#aT"/><use transform="matrix(0.05,0,0,0.05,162.9,0)" xlink:href="#bb"/><use transform="matrix(0.05,0,0,0.05,168.85,0)" xlink:href="#bk"/><use transform="matrix(0.05,0,0,0.05,178.85,0)" xlink:href="#bc"/></g><g id="I"><use transform="matrix(0.05,0,0,0.05,0,0)" xlink:href="#aR"/><use transform="matrix(0.05,0,0,0.05,9,0)" xlink:href="#aD"/><use transform="matrix(0.05,0,0,0.05,14,0)" xlink:href="#aB"/><use transform="matrix(0.05,0,0,0.05,24,0)" xlink:href="#aD"/><use transform="matrix(0.05,0,0,0.05,29,0)" xlink:href="#aT"/><use transform="matrix(0.05,0,0,0.05,39,0)" xlink:href="#be"/><use transform="matrix(0.05,0,0,0.05,50,0)" xlink:href="#aT"/><use transform="matrix(0.05,0,0,0.05,60,0)" xlink:href="#aF"/><use transform="matrix(0.05,0,0,0.05,69,0)" xlink:href="#aD"/><use transform="matrix(0.05,0,0,0.05,74,0)" xlink:href="#aV"/><use transform="matrix(0.05,0,0,0.05,84,0)" xlink:href="#aC"/><use transform="matrix(0.05,0,0,0.05,89.95,0)" xlink:href="#aL"/><use transform="matrix(0.05,0,0,0.05,94.95,0)" xlink:href="#aB"/><use transform="matrix(0.05,0,0,0.05,104.95,0)" xlink:href="#aQ"/></g><path fill="#333" d="M63-70H37l-4-178h34zM33 0v-35h34V0H33" id="bn"/><path fill="#333" d="M18-150v-26h174v26H18zm0 90v-26h174v26H18" id="bo"/><g id="J"><use transform="matrix(0.05,0,0,0.05,0,0)" xlink:href="#bn"/><use transform="matrix(0.05,0,0,0.05,5,0)" xlink:href="#bo"/><use transform="matrix(0.05,0,0,0.05,15.5,0)" xlink:href="#bo"/></g><g id="K"><use transform="matrix(0.05,0,0,0.05,0,0)" xlink:href="#aR"/><use transform="matrix(0.05,0,0,0.05,9,0)" xlink:href="#aD"/><use transform="matrix(0.05,0,0,0.05,14,0)" xlink:href="#aB"/><use transform="matrix(0.05,0,0,0.05,24,0)" xlink:href="#aD"/><use transform="matrix(0.05,0,0,0.05,29,0)" xlink:href="#aT"/><use transform="matrix(0.05,0,0,0.05,39,0)" xlink:href="#be"/><use transform="matrix(0.05,0,0,0.05,50,0)" xlink:href="#aT"/><use transform="matrix(0.05,0,0,0.05,60,0)" xlink:href="#aF"/><use transform="matrix(0.05,0,0,0.05,69,0)" xlink:href="#aD"/><use transform="matrix(0.05,0,0,0.05,74,0)" xlink:href="#aV"/><use transform="matrix(0.05,0,0,0.05,84,0)" xlink:href="#aC"/><use transform="matrix(0.05,0,0,0.05,89.95,0)" xlink:href="#aL"/><use transform="matrix(0.05,0,0,0.05,94.95,0)" xlink:href="#bk"/><use transform="matrix(0.05,0,0,0.05,104.95,0)" xlink:href="#aQ"/></g><g id="L"><use transform="matrix(0.05,0,0,0.05,0,0)" xlink:href="#aF"/><use transform="matrix(0.05,0,0,0.05,9,0)" xlink:href="#aY"/><use transform="matrix(0.05,0,0,0.05,19,0)" xlink:href="#aB"/><use transform="matrix(0.05,0,0,0.05,29,0)" xlink:href="#aH"/><use transform="matrix(0.05,0,0,0.05,39,0)" xlink:href="#ba"/><use transform="matrix(0.05,0,0,0.05,49,0)" xlink:href="#aT"/><use transform="matrix(0.05,0,0,0.05,59,0)" xlink:href="#aR"/><use transform="matrix(0.05,0,0,0.05,68,0)" xlink:href="#aZ"/><use transform="matrix(0.05,0,0,0.05,82.95,0)" xlink:href="#aT"/><use transform="matrix(0.05,0,0,0.05,92.95,0)" xlink:href="#aR"/><use transform="matrix(0.05,0,0,0.05,101.95,0)" xlink:href="#aR"/><use transform="matrix(0.05,0,0,0.05,110.95,0)" xlink:href="#aB"/><use transform="matrix(0.05,0,0,0.05,120.95,0)" xlink:href="#ba"/><use transform="matrix(0.05,0,0,0.05,130.95,0)" xlink:href="#aT"/><use transform="matrix(0.05,0,0,0.05,140.95,0)" xlink:href="#bb"/><use transform="matrix(0.05,0,0,0.05,146.89999999999998,0)" xlink:href="#aW"/><use transform="matrix(0.05,0,0,0.05,156.89999999999998,0)" xlink:href="#bc"/></g><g id="M"><use transform="matrix(0.05,0,0,0.05,0,0)" xlink:href="#aB"/><use transform="matrix(0.05,0,0,0.05,10,0)" xlink:href="#aG"/><use transform="matrix(0.05,0,0,0.05,20,0)" xlink:href="#aG"/><use transform="matrix(0.05,0,0,0.05,30,0)" xlink:href="#aN"/><use transform="matrix(0.05,0,0,0.05,33.95,0)" xlink:href="#aP"/></g><g id="N"><use transform="matrix(0.05,0,0,0.05,0,0)" xlink:href="#aF"/><use transform="matrix(0.05,0,0,0.05,9,0)" xlink:href="#aY"/><use transform="matrix(0.05,0,0,0.05,19,0)" xlink:href="#aB"/><use transform="matrix(0.05,0,0,0.05,29,0)" xlink:href="#aH"/><use transform="matrix(0.05,0,0,0.05,39,0)" xlink:href="#ba"/><use transform="matrix(0.05,0,0,0.05,49,0)" xlink:href="#aT"/><use transform="matrix(0.05,0,0,0.05,59,0)" xlink:href="#aR"/></g><g id="O"><use transform="matrix(0.05,0,0,0.05,0,0)" xlink:href="#bi"/><use transform="matrix(0.05,0,0,0.05,10,0)" xlink:href="#bm"/></g><path fill="#333" d="M233-177c-1 41-23 64-60 70L243 0h-38l-65-103H63V0H30v-248c88 3 205-21 203 71zM63-129c60-2 137 13 137-47 0-61-80-42-137-45v92" id="bp"/><g id="P"><use transform="matrix(0.05,0,0,0.05,0,0)" xlink:href="#aL"/><use transform="matrix(0.05,0,0,0.05,5,0)" xlink:href="#bp"/><use transform="matrix(0.05,0,0,0.05,17.950000000000003,0)" xlink:href="#aS"/><use transform="matrix(0.05,0,0,0.05,27.950000000000003,0)" xlink:href="#aH"/><use transform="matrix(0.05,0,0,0.05,37.95,0)" xlink:href="#aD"/><use transform="matrix(0.05,0,0,0.05,42.95,0)" xlink:href="#aE"/><use transform="matrix(0.05,0,0,0.05,46.900000000000006,0)" xlink:href="#bd"/><use transform="matrix(0.05,0,0,0.05,61.85,0)" xlink:href="#aT"/></g><path fill="#333" d="M232-93c-1 65-40 97-104 97C67 4 28-28 28-90v-158h33c8 89-33 224 67 224 102 0 64-133 71-224h33v155" id="bq"/><g id="Q"><use transform="matrix(0.05,0,0,0.05,0,0)" xlink:href="#bq"/><use transform="matrix(0.05,0,0,0.05,12.950000000000001,0)" xlink:href="#aG"/><use transform="matrix(0.05,0,0,0.05,22.950000000000003,0)" xlink:href="#bf"/><use transform="matrix(0.05,0,0,0.05,32.95,0)" xlink:href="#aB"/><use transform="matrix(0.05,0,0,0.05,42.95,0)" xlink:href="#aD"/><use transform="matrix(0.05,0,0,0.05,47.95,0)" xlink:href="#aT"/><use transform="matrix(0.05,0,0,0.05,57.95,0)" xlink:href="#aQ"/></g><path fill="#333" d="M110-160c48 1 74 30 74 79 0 53-28 85-80 85-65 0-83-55-86-122-5-90 50-162 133-122 14 7 22 21 27 39l-31 6c-5-40-67-38-82-6-9 19-15 44-15 74 11-20 30-34 60-33zm-7 138c34 0 49-23 49-58s-16-56-50-56c-29 0-50 16-49 49 1 36 15 65 50 65" id="br"/><use transform="matrix(0.05,0,0,0.05,0,0)" xlink:href="#br" id="R"/><path fill="#333" d="M101-251c82-7 93 87 43 132L82-64C71-53 59-42 53-27h129V0H18c2-99 128-94 128-182 0-28-16-43-45-43s-46 15-49 41l-32-3c6-41 34-60 81-64" id="bs"/><g id="S"><use transform="matrix(0.05,0,0,0.05,0,0)" xlink:href="#bs"/><use transform="matrix(0.05,0,0,0.05,10,0)" xlink:href="#bm"/></g><g id="T"><use transform="matrix(0.05,0,0,0.05,0,0)" xlink:href="#aF"/><use transform="matrix(0.05,0,0,0.05,9,0)" xlink:href="#aY"/><use transform="matrix(0.05,0,0,0.05,19,0)" xlink:href="#aB"/><use transform="matrix(0.05,0,0,0.05,29,0)" xlink:href="#aH"/><use transform="matrix(0.05,0,0,0.05,39,0)" xlink:href="#ba"/><use transform="matrix(0.05,0,0,0.05,49,0)" xlink:href="#aT"/><use transform="matrix(0.05,0,0,0.05,59,0)" xlink:href="#aR"/><use transform="matrix(0.05,0,0,0.05,68,0)" xlink:href="#aZ"/><use transform="matrix(0.05,0,0,0.05,82.95,0)" xlink:href="#aT"/><use transform="matrix(0.05,0,0,0.05,92.95,0)" xlink:href="#aR"/><use transform="matrix(0.05,0,0,0.05,101.95,0)" xlink:href="#aR"/><use transform="matrix(0.05,0,0,0.05,110.95,0)" xlink:href="#aB"/><use transform="matrix(0.05,0,0,0.05,120.95,0)" xlink:href="#ba"/><use transform="matrix(0.05,0,0,0.05,130.95,0)" xlink:href="#aT"/><use transform="matrix(0.05,0,0,0.05,140.95,0)" xlink:href="#bb"/><use transform="matrix(0.05,0,0,0.05,146.89999999999998,0)" xlink:href="#br"/><use transform="matrix(0.05,0,0,0.05,156.89999999999998,0)" xlink:href="#bc"/></g><g id="U"><use transform="matrix(0.05,0,0,0.05,0,0)" xlink:href="#bs"/><use transform="matrix(0.05,0,0,0.05,10,0)" xlink:href="#bj"/></g></defs></g></svg>
